<svg id="Layer_1" data-name="Layer 1" xmlns="http://www.w3.org/2000/svg" viewBox="0 0 760.54 113.97"><defs><style>.cls-1{fill:#035;}.cls-2{fill:#3fac48;}.cls-2,.cls-3{fill-rule:evenodd;}.cls-3{fill:#008fb8;}</style></defs><path class="cls-1" d="M287.07,84.27h34.08c11.8,0,23.41,5.34,23.41,18.82,0,7.21-3.47,14-10.49,16.76V120c7.12,1.68,9.18,9.64,9.74,16,.19,2.8.47,12.63,2.81,15.07H329.39c-1.5-2.25-1.78-8.8-2-10.67-.46-6.74-1.59-13.67-9.73-13.67h-13.2v24.34H287.07Zm17.42,29h14.6c5.25,0,8.06-2.81,8.06-7.87s-3.94-7.21-8.81-7.21H304.49Z" transform="translate(-82.46 -47.65)"/><path class="cls-1" d="M363.84,130.71c.28,6.65,4.12,11,10.86,11,3.84,0,7.59-1.78,9.08-5.34h14.89c-2.9,11.24-13.29,16.1-24.16,16.1-15.82,0-26.58-9.55-26.58-25.84,0-14.88,11.89-25.56,26.21-25.56,17.42,0,26.12,13.11,25.37,29.59Zm19.76-8.9c-.28-5.42-4.12-9.92-9.46-9.92-5.62,0-9.36,4-10.3,9.92Z" transform="translate(-82.46 -47.65)"/><path class="cls-1" d="M403.72,102.53h15.45v6.65h.19c2.9-5,9.46-8.06,15.26-8.06,16.2,0,17.51,11.8,17.51,18.82v31.18H436.21v-23.5c0-6.65.75-13.39-7.95-13.39-6,0-8.62,5.06-8.62,10.39v26.5H403.72Z" transform="translate(-82.46 -47.65)"/><path class="cls-1" d="M459,102.53h15.45v6.65h.19c2.9-5,9.45-8.06,15.26-8.06,16.2,0,17.5,11.8,17.5,18.82v31.18H491.45v-23.5c0-6.65.75-13.39-8-13.39-6,0-8.61,5.06-8.61,10.39v26.5H459Z" transform="translate(-82.46 -47.65)"/><path class="cls-1" d="M527.78,130.71c.28,6.65,4.12,11,10.85,11,3.84,0,7.59-1.78,9.09-5.34H562.6c-2.9,11.24-13.29,16.1-24.15,16.1-15.82,0-26.59-9.55-26.59-25.84,0-14.88,11.89-25.56,26.21-25.56,17.42,0,26.12,13.11,25.37,29.59Zm19.75-8.9c-.28-5.42-4.12-9.92-9.46-9.92-5.62,0-9.36,4-10.29,9.92Z" transform="translate(-82.46 -47.65)"/><path class="cls-1" d="M568.22,102.53h15.45v8.52h.19c2.33-6.18,7.77-9.46,14.6-9.46a17.05,17.05,0,0,1,3.75.38v14.51a22.42,22.42,0,0,0-6.09-.94c-7.87,0-12,5.43-12,11.52v24.06H568.22Z" transform="translate(-82.46 -47.65)"/><path class="cls-1" d="M611.85,84.27h26.77c15.92,0,21.07,8.71,21.07,17.32a14.29,14.29,0,0,1-13,14.23l.19.19c1.78-.28,15.07,2.9,15.07,16.39,0,12.17-9.36,18.72-23.31,18.72H611.85ZM616,114.61h22.65c11.14,0,17-5.62,17-13.77,0-9.64-8.05-13-17-13H616Zm0,33h22.65c11.8,0,19.2-5.24,19.2-15.16,0-11.43-10.4-14.24-19.2-14.24H616Z" transform="translate(-82.46 -47.65)"/><path class="cls-1" d="M671.86,113.67h.28c1.87-6.27,9.74-11.33,18.44-11v3.55A16.31,16.31,0,0,0,677.29,111c-3.56,3.66-5.06,6.65-5.43,13.86v26.31H668.3V103h3.56Z" transform="translate(-82.46 -47.65)"/><path class="cls-1" d="M712.31,101.87c14.13,0,22.09,11.52,22.09,25.19s-8,25.18-22.09,25.18-22.1-11.51-22.1-25.18S698.17,101.87,712.31,101.87Zm0,47.28c12.07,0,18.53-10.58,18.53-22.09S724.38,105,712.31,105s-18.54,10.58-18.54,22.1S700.23,149.15,712.31,149.15Z" transform="translate(-82.46 -47.65)"/><path class="cls-1" d="M752.84,147H753l13.1-44h4.78l13.2,44h.19l13.48-44h3.93l-15.44,48.12h-4.4l-13.21-43.63h-.18l-13.3,43.63h-4.49L735.43,103h3.83Z" transform="translate(-82.46 -47.65)"/><path class="cls-1" d="M804.9,103h3.55v10.3h.19c2.44-7.21,9.74-11.43,17.23-11.43,16.94,0,17.13,13.58,17.13,19.48v29.77h-3.56V120.69c0-5-.56-15.73-13.67-15.73-10.76,0-17.32,8.34-17.32,20.13v26H804.9Z" transform="translate(-82.46 -47.65)"/><path class="cls-2" d="M243.92,123.38a5.46,5.46,0,0,1,.21-2.16,5,5,0,0,1,1-1.75,5.24,5.24,0,0,1,1.6-1.21,5.93,5.93,0,0,1,2.1-.57h0a5.54,5.54,0,0,1,2.12.22,5.23,5.23,0,0,1,1.81,1,5.06,5.06,0,0,1,1.31,1.55,5.34,5.34,0,0,1,.62,2,7.27,7.27,0,0,1,0,1.23,5.5,5.5,0,0,1-.18,1,5.36,5.36,0,0,1-.37.92,5.52,5.52,0,0,1-.54.85l-1.86-1.24a5.09,5.09,0,0,0,.39-.6,4.91,4.91,0,0,0,.28-.62,2.93,2.93,0,0,0,.14-.68,4.11,4.11,0,0,0,0-.79,2.56,2.56,0,0,0-.36-1.09,3.09,3.09,0,0,0-.79-.86,3.38,3.38,0,0,0-1.08-.52,3.63,3.63,0,0,0-1.28-.12h0a3.62,3.62,0,0,0-1.29.34,3.13,3.13,0,0,0-1,.71,2.91,2.91,0,0,0-.61,1,3,3,0,0,0-.13,1.24,3.35,3.35,0,0,0,.81,2l1.48-.13-.19-2.2,2-.17.4,4.33-4.52.38a7.35,7.35,0,0,1-1.33-1.73,5.77,5.77,0,0,1-.71-2.39m2.74-30.51.79,1.88-4.13,6.66,6-2.31.84,2-9.68,3.75-.74-1.74L244,96.25l-6.16,2.38-.85-2ZM235.5,76.93,237,78.64l-8.12,6.3-1.45-1.72ZM217.67,64,215,62.3l1.19-1.68,7.17,4.63-1.18,1.69-2.64-1.71-4.65,6.61L213,70.61ZM195.83,51.5l2,.59L199.06,63l-2.3-.68-.23-2.41-4.22-1.24-1.6,1.88-2.24-.65Zm.51,6.3L196,54.31,193.68,57ZM166.79,47.65l4.78.08a4.24,4.24,0,0,1,3,1.07,3,3,0,0,1,.86,2.3v0a3,3,0,0,1-.66,2,3.55,3.55,0,0,1-1.64,1.09l2.49,3.62L173,57.76l-2.18-3.23h0l-1.77,0-.06,3.2-2.3,0Zm4.54,4.94a2,2,0,0,0,1.31-.36,1.32,1.32,0,0,0,.48-1v0a1.24,1.24,0,0,0-.46-1.07,2.16,2.16,0,0,0-1.32-.39l-2.29,0L169,52.55Zm-30.47,0,4.62-1.44a3.87,3.87,0,0,1,2.88,0,2.34,2.34,0,0,1,1.23,1.4v0a2.4,2.4,0,0,1,.14.75,2.07,2.07,0,0,1-.1.66,2.18,2.18,0,0,1-.25.56,3.17,3.17,0,0,1-.4.49,3.59,3.59,0,0,1,1.65.43,2.25,2.25,0,0,1,1,1.33v0a2.67,2.67,0,0,1,.12,1.23,2.27,2.27,0,0,1-.47,1,3.78,3.78,0,0,1-1,.85,6.64,6.64,0,0,1-1.47.64l-4.73,1.47Zm5.46,2.56a2.47,2.47,0,0,0,1.07-.6.83.83,0,0,0,.16-.9v0a.9.9,0,0,0-.62-.61,2,2,0,0,0-1.15.08l-2.16.67.69,2Zm1.88,3.65a2.28,2.28,0,0,0,1.05-.61.87.87,0,0,0,.14-.91v0a1,1,0,0,0-.64-.63,2.28,2.28,0,0,0-1.33.1l-2.53.79.71,2.09ZM119,64l6.54-4.22,1.14,1.63-4.63,3L123.18,66l4.08-2.63L128.41,65l-4.09,2.64,1.23,1.74,4.7-3L131.39,68l-6.59,4.27Zm-17.17,16.6,1.45-1.71,6.49,5L113,80l1.62,1.26-4.72,5.59ZM90,101.64l3.08-7,1.88.77-2.19,4.93,2,.79,1.93-4.34,1.88.77L96.55,102l2,.82,2.21-5,1.88.77-3.1,7Zm6.55,21a5,5,0,0,1-.6,2,5.16,5.16,0,0,1-1.29,1.53,5.29,5.29,0,0,1-1.8.92,5.8,5.8,0,0,1-2.13.21h0a5.57,5.57,0,0,1-2.05-.56A5.46,5.46,0,0,1,87,125.56a5,5,0,0,1-1.24-3.88,6.27,6.27,0,0,1,.24-1.26,4.73,4.73,0,0,1,.42-1,4.45,4.45,0,0,1,.59-.83,5.13,5.13,0,0,1,.72-.68l1.55,1.53a5.52,5.52,0,0,0-1,1.12,2.91,2.91,0,0,0-.43,1.33,2.73,2.73,0,0,0,.14,1.18,2.84,2.84,0,0,0,.61,1,3.17,3.17,0,0,0,1,.68,3.34,3.34,0,0,0,1.23.32h0a4,4,0,0,0,1.29-.11,3.62,3.62,0,0,0,1.09-.5,3,3,0,0,0,.79-.86,2.6,2.6,0,0,0,.37-1.15,3,3,0,0,0-.2-1.47,5.56,5.56,0,0,0-.78-1.25l1.6-1.27a6.94,6.94,0,0,1,.7.86,4.52,4.52,0,0,1,.5.95,4.3,4.3,0,0,1,.28,1.11A6.45,6.45,0,0,1,96.5,122.67Z" transform="translate(-82.46 -47.65)"/><polyline class="cls-3" points="7.46 96.9 9.22 102.09 14.93 102.09 10.31 105.3 12.07 110.49 7.46 107.28 2.85 110.49 4.62 105.3 0 102.09 5.7 102.09"/><polyline class="cls-3" points="168.02 96.9 169.78 102.09 175.48 102.09 170.87 105.3 172.63 110.49 168.02 107.28 163.41 110.49 165.17 105.3 160.56 102.09 166.26 102.09"/><path class="cls-3" d="M182.57,153.45c-.94.61-.8,1.16.4,1.64a8.21,8.21,0,0,0,2.72.64v1.64a24,24,0,0,1-12.57-4.19,6.87,6.87,0,0,1-2.21-3.15,7.23,7.23,0,0,1-.3-4,7,7,0,0,1,3.57-4.32,8.4,8.4,0,0,1,5.88-.87,7.22,7.22,0,0,1,4.77,3.14,6.48,6.48,0,0,1,1,5.33,5.89,5.89,0,0,1-3.22,4.1m-10-25.56-5.07,16.63H127.09l11.66-11.66h23a10,10,0,0,0,9-4.9l2.3-10.77a64.48,64.48,0,0,1,13.42-1,72.19,72.19,0,0,1,10.25,1.14,22.15,22.15,0,0,1,7.44,2.78,29.08,29.08,0,0,1,5,3.87,15.77,15.77,0,0,1,3.12,4.42,19.61,19.61,0,0,1,1.55,4.42,18.66,18.66,0,0,1,.41,3.78q0,9.19-6.23,14.58t-16.09,6.19v-1.64q7.74-.91,10.71-5.51a11,11,0,0,0,1.25-9.8,12.74,12.74,0,0,0-1.15-2.45,22.33,22.33,0,0,0-2.42-3.15,15,15,0,0,0-4-3.18,37.09,37.09,0,0,0-6-2.6,28.15,28.15,0,0,0-8.44-1.41A89.56,89.56,0,0,0,172.55,127.89ZM220,92.51l-11.37,11.93h-33l2.52-11.93ZM149.79,79.57A17.48,17.48,0,0,1,162.1,84,14,14,0,0,1,167,94.78a16.51,16.51,0,0,1-2.81,8.7,108,108,0,0,1-9.35,12.07L153,114.27q7-11,2.11-18.4a12.66,12.66,0,0,0-10.05-5.64q-7.14-.65-11.46,4.37a11.26,11.26,0,0,0-1.71,2.46l-1.61-.37a19.9,19.9,0,0,1,2.87-8.29,15.08,15.08,0,0,1,5-5.14,33.33,33.33,0,0,1,5.38-2.55,15.55,15.55,0,0,1,4.42-1Z" transform="translate(-82.46 -47.65)"/><path class="cls-3" d="M123.82,151l.06-.49-.09-.51-.36-.68h2.94l-3,6.75v3.42a4.12,4.12,0,0,0,.16,1.34,2.18,2.18,0,0,0,.52.83h-4.42l.52-.82a4.83,4.83,0,0,0,.13-1.35v-3.26l-2.57-5.51-.88-1.4h3.83l1.91,4.51m12.31-2-.71-.51-.88-.19h-1.09v3.09h2.1v2.37a.9.9,0,0,0-.48-.46,1.71,1.71,0,0,0-.7-.17h-.92v3.75l.63.13h.55l1.57-.22a2.43,2.43,0,0,0,1.23-.69l-.61,2.71h-7.2l.51-.78a4.42,4.42,0,0,0,.16-1.39v-8a4.23,4.23,0,0,0-.19-1.52,1.7,1.7,0,0,0-.48-.65h6.51Zm6.79-1.88.1.54-.19.83,0,.19-3,9.22-.59.91h3.26l-.42-.59-.12-.6,0-.27.64-2.18h3.35l.63,2.05v.34l-.09.54-.47.71h4.31V161l-.23-.35-.51-1.24-3.15-10.13h-3.93Zm.2,6.31,1.14-3.82,1.15,3.82Zm14.75-3.31a2.55,2.55,0,0,1-.44,1.52,2.36,2.36,0,0,1-1.34.88v-4.17l.1,0h.16a1.42,1.42,0,0,1,1.1.47A2,2,0,0,1,156.65,152.93Zm2-2.84a5.31,5.31,0,0,0-3.21-.81h-4.3a1.64,1.64,0,0,1,.59,1,6.7,6.7,0,0,1,.07,1.15v8a4.5,4.5,0,0,1-.13,1.36,2.16,2.16,0,0,1-.53.79h4.4l-.52-.79a4.5,4.5,0,0,1-.13-1.36V156.3l1.4,3.11a4.72,4.72,0,0,0,1.16,1.7,2.16,2.16,0,0,0,1.45.51l2.31-.24-.87-1-2.6-4.79a3.84,3.84,0,0,0,1.49-1.3,2.68,2.68,0,0,0,.5-1.66A2.9,2.9,0,0,0,158.63,150.09Zm9.64,1.13-.94-.21a1.56,1.56,0,0,0-1,.35.91.91,0,0,0-.4.83c0,.47.61,1.05,1.84,1.76l1.18.68a3.54,3.54,0,0,1,1.33,1.33,3.85,3.85,0,0,1,.47,1.9,3.47,3.47,0,0,1-1.21,2.78,4.43,4.43,0,0,1-3,1l-1.53-.15L163.3,161l-.55-2.53a8.17,8.17,0,0,0,1.87,1,4.55,4.55,0,0,0,1.53.32,1.94,1.94,0,0,0,1.17-.36,1.12,1.12,0,0,0,.49-1c0-.57-.59-1.18-1.77-1.82l-.84-.43a4.65,4.65,0,0,1-1.68-1.52,3.51,3.51,0,0,1-.59-1.95,3.12,3.12,0,0,1,1.14-2.56,4.26,4.26,0,0,1,2.79-.88l1.32.12,1.39.43v2Z" transform="translate(-82.46 -47.65)"/></svg>